<svg width="126" height="52" viewBox="0 0 126 52" fill="none" xmlns="http://www.w3.org/2000/svg">
<path d="M12.5504 9.708V14.216H12.5364L12.5504 14.258C11.7944 14.8273 10.8191 15.112 9.6244 15.112C8.1684 15.112 6.99707 14.6827 6.1104 13.824C5.22373 12.956 4.7804 11.7707 4.7804 10.268C4.7804 8.84 5.21907 7.67333 6.0964 6.768C6.98307 5.85333 8.0984 5.396 9.4424 5.396C10.5531 5.396 11.4724 5.61067 12.2004 6.04V7.258C11.4351 6.754 10.5484 6.502 9.5404 6.502C8.48573 6.502 7.62707 6.84733 6.9644 7.538C6.30173 8.21933 5.9704 9.12933 5.9704 10.268C5.9704 11.4347 6.29707 12.354 6.9504 13.026C7.60373 13.6887 8.5044 14.02 9.6524 14.02C10.2871 14.02 10.8751 13.894 11.4164 13.642V10.702H9.3444V9.708H12.5504ZM16.3573 11.556H19.7033L19.5213 11.01L18.0513 6.474C17.9393 6.87533 17.4353 8.392 16.5393 11.024L16.3573 11.556ZM20.8513 15L20.0253 12.522H16.0353L15.1953 15H13.9773L17.2673 5.564H18.8353L22.0693 15H20.8513ZM24.7774 14.034H26.9194C27.5168 14.034 27.9741 13.8987 28.2914 13.628C28.6181 13.348 28.7814 12.942 28.7814 12.41C28.7814 11.878 28.5994 11.4627 28.2354 11.164C27.8808 10.8653 27.3721 10.716 26.7094 10.716H24.7774V14.034ZM24.7774 6.53V9.75H26.2894C27.0454 9.75 27.6054 9.59133 27.9694 9.274C28.3334 8.95667 28.5154 8.546 28.5154 8.042C28.5154 7.60333 28.3428 7.244 27.9974 6.964C27.6614 6.67467 27.1574 6.53 26.4854 6.53H24.7774ZM23.6434 5.564H26.4854C27.4561 5.564 28.2308 5.788 28.8094 6.236C29.3974 6.684 29.6914 7.286 29.6914 8.042C29.6914 8.58333 29.5374 9.05467 29.2294 9.456C28.9308 9.848 28.5434 10.0953 28.0674 10.198C28.5901 10.282 29.0334 10.52 29.3974 10.912C29.7708 11.2947 29.9574 11.8173 29.9574 12.48C29.9574 13.236 29.7054 13.8473 29.2014 14.314C28.7068 14.7713 28.0021 15 27.0874 15H23.6434V5.564ZM32.7755 6.544V10.31H34.2035C34.8475 10.31 35.3375 10.1373 35.6735 9.792C36.0188 9.43733 36.1915 8.98467 36.1915 8.434C36.1915 7.174 35.4868 6.544 34.0775 6.544H32.7755ZM37.9135 15H36.5555L34.2455 11.276H34.1335H32.7755V15H31.6415V5.564H34.0075C35.0995 5.564 35.9255 5.82067 36.4855 6.334C37.0548 6.84733 37.3395 7.55667 37.3395 8.462C37.3208 9.11533 37.1481 9.67067 36.8215 10.128C36.4948 10.5853 36.0328 10.9073 35.4355 11.094L37.9135 15ZM39.3954 15V5.564H40.5294V15H39.3954ZM43.9044 14.006H48.0344V15H42.7704V5.564H47.9644V6.558H43.9044V9.792H47.4884V10.786H43.9044V14.006ZM50.9181 13.978H54.9361V15H49.7841V5.564H50.9181V13.978ZM66.6079 5.942V7.104C66.1972 6.88933 65.8286 6.73533 65.5019 6.642C65.1752 6.54867 64.7459 6.502 64.2139 6.502C63.1966 6.502 62.3472 6.84733 61.6659 7.538C60.9939 8.22867 60.6579 9.12933 60.6579 10.24C60.6579 11.3973 60.9939 12.3213 61.6659 13.012C62.3379 13.7027 63.2292 14.048 64.3399 14.048C65.2359 14.048 66.0012 13.81 66.6359 13.334V14.524C66.0572 14.916 65.2639 15.112 64.2559 15.112C62.8372 15.112 61.6846 14.678 60.7979 13.81C59.9112 12.9327 59.4679 11.7427 59.4679 10.24C59.4679 8.82133 59.9159 7.66867 60.8119 6.782C61.7172 5.886 62.8512 5.438 64.2139 5.438C65.1939 5.438 65.9919 5.606 66.6079 5.942ZM67.8898 10.24C67.8898 8.756 68.2678 7.57533 69.0238 6.698C69.7891 5.82067 70.8204 5.382 72.1178 5.382C73.4431 5.382 74.4791 5.82067 75.2258 6.698C75.9818 7.566 76.3598 8.74667 76.3598 10.24C76.3598 11.724 75.9771 12.9093 75.2118 13.796C74.4558 14.6733 73.4291 15.112 72.1318 15.112C70.8531 15.112 69.8264 14.6687 69.0518 13.782C68.2771 12.8953 67.8898 11.7147 67.8898 10.24ZM69.0798 10.24C69.0798 11.4067 69.3551 12.3307 69.9058 13.012C70.4658 13.6933 71.2078 14.034 72.1318 14.034C73.0931 14.034 73.8351 13.698 74.3578 13.026C74.8898 12.354 75.1558 11.4253 75.1558 10.24C75.1558 9.05467 74.8898 8.126 74.3578 7.454C73.8258 6.782 73.0791 6.446 72.1178 6.446C71.1658 6.446 70.4191 6.78667 69.8778 7.468C69.3458 8.14 69.0798 9.064 69.0798 10.24ZM79.2325 6.544V10.31H80.6605C81.3045 10.31 81.7945 10.1373 82.1305 9.792C82.4758 9.43733 82.6485 8.98467 82.6485 8.434C82.6485 7.174 81.9438 6.544 80.5345 6.544H79.2325ZM84.3705 15H83.0125L80.7025 11.276H80.5905H79.2325V15H78.0985V5.564H80.4645C81.5565 5.564 82.3825 5.82067 82.9425 6.334C83.5118 6.84733 83.7965 7.55667 83.7965 8.462C83.7778 9.11533 83.6052 9.67067 83.2785 10.128C82.9518 10.5853 82.4898 10.9073 81.8925 11.094L84.3705 15ZM86.9164 14.006H88.6104C89.7771 14.006 90.6591 13.6467 91.2564 12.928C91.8538 12.2 92.1524 11.2947 92.1524 10.212C92.1524 9.18533 91.8164 8.322 91.1444 7.622C90.4818 6.922 89.6184 6.572 88.5544 6.572H86.9164V14.006ZM85.7684 5.564H88.5684C89.9591 5.564 91.0978 5.998 91.9844 6.866C92.8804 7.72467 93.3284 8.84 93.3284 10.212C93.3284 11.5747 92.9131 12.7133 92.0824 13.628C91.2611 14.5427 90.1084 15 88.6244 15H85.7684V5.564ZM96.1583 14.006H100.288V15H95.0243V5.564H100.218V6.558H96.1583V9.792H99.7423V10.786H96.1583V14.006ZM102.122 15V5.564H103.256V15H102.122ZM106.631 6.544V10.31H108.059C108.703 10.31 109.193 10.1373 109.529 9.792C109.874 9.43733 110.047 8.98467 110.047 8.434C110.047 7.174 109.342 6.544 107.933 6.544H106.631ZM111.769 15H110.411L108.101 11.276H107.989H106.631V15H105.497V5.564H107.863C108.955 5.564 109.781 5.82067 110.341 6.334C110.91 6.84733 111.195 7.55667 111.195 8.462C111.176 9.11533 111.004 9.67067 110.677 10.128C110.35 10.5853 109.888 10.9073 109.291 11.094L111.769 15ZM112.761 10.24C112.761 8.756 113.139 7.57533 113.895 6.698C114.66 5.82067 115.692 5.382 116.989 5.382C118.314 5.382 119.35 5.82067 120.097 6.698C120.853 7.566 121.231 8.74667 121.231 10.24C121.231 11.724 120.848 12.9093 120.083 13.796C119.327 14.6733 118.3 15.112 117.003 15.112C115.724 15.112 114.698 14.6687 113.923 13.782C113.148 12.8953 112.761 11.7147 112.761 10.24ZM113.951 10.24C113.951 11.4067 114.226 12.3307 114.777 13.012C115.337 13.6933 116.079 14.034 117.003 14.034C117.964 14.034 118.706 13.698 119.229 13.026C119.761 12.354 120.027 11.4253 120.027 10.24C120.027 9.05467 119.761 8.126 119.229 7.454C118.697 6.782 117.95 6.446 116.989 6.446C116.037 6.446 115.29 6.78667 114.749 7.468C114.217 8.14 113.951 9.064 113.951 10.24Z" fill="#E89B25"/>
<path d="M33.7316 36.558H29.6856V39.904H33.2416V40.898H29.6856V45H28.5516V35.564H33.7316V36.558ZM36.5352 36.544V40.31H37.9632C38.6072 40.31 39.0972 40.1373 39.4332 39.792C39.7786 39.4373 39.9512 38.9847 39.9512 38.434C39.9512 37.174 39.2466 36.544 37.8372 36.544H36.5352ZM41.6732 45H40.3152L38.0052 41.276H37.8932H36.5352V45H35.4012V35.564H37.7672C38.8592 35.564 39.6852 35.8207 40.2452 36.334C40.8146 36.8473 41.0992 37.5567 41.0992 38.462C41.0806 39.1153 40.9079 39.6707 40.5812 40.128C40.2546 40.5853 39.7926 40.9073 39.1952 41.094L41.6732 45ZM42.6652 40.24C42.6652 38.756 43.0432 37.5753 43.7992 36.698C44.5645 35.8207 45.5958 35.382 46.8932 35.382C48.2185 35.382 49.2545 35.8207 50.0012 36.698C50.7572 37.566 51.1352 38.7467 51.1352 40.24C51.1352 41.724 50.7525 42.9093 49.9872 43.796C49.2312 44.6733 48.2045 45.112 46.9072 45.112C45.6285 45.112 44.6018 44.6687 43.8272 43.782C43.0525 42.8953 42.6652 41.7147 42.6652 40.24ZM43.8552 40.24C43.8552 41.4067 44.1305 42.3307 44.6812 43.012C45.2412 43.6933 45.9832 44.034 46.9072 44.034C47.8685 44.034 48.6105 43.698 49.1332 43.026C49.6652 42.354 49.9312 41.4253 49.9312 40.24C49.9312 39.0547 49.6652 38.126 49.1332 37.454C48.6012 36.782 47.8545 36.446 46.8932 36.446C45.9412 36.446 45.1945 36.7867 44.6532 37.468C44.1212 38.14 43.8552 39.064 43.8552 40.24ZM52.8739 45V35.564H54.3019L56.6679 39.54L59.0619 43.628C59.0246 42.7227 59.0059 41.3647 59.0059 39.554V35.564H60.1399V45H58.7119L56.3459 41.052C55.8699 40.2587 55.4312 39.5213 55.0299 38.84C54.6286 38.1493 54.3439 37.6547 54.1759 37.356L53.9379 36.922C53.9846 37.8927 54.0079 39.26 54.0079 41.024V45H52.8739ZM67.6978 35.564V36.558H65.1498V45H64.0158V36.558H61.4678V35.564H67.6978ZM68.7677 41.724V40.758H72.0437V41.724H68.7677ZM75.0489 44.006H79.1789V45H73.9149V35.564H79.1089V36.558H75.0489V39.792H78.6329V40.786H75.0489V44.006ZM80.9286 45V35.564H82.3566L84.7226 39.54L87.1166 43.628C87.0793 42.7227 87.0606 41.3647 87.0606 39.554V35.564H88.1946V45H86.7666L84.4006 41.052C83.9246 40.2587 83.4859 39.5213 83.0846 38.84C82.6833 38.1493 82.3986 37.6547 82.2306 37.356L81.9926 36.922C82.0393 37.8927 82.0626 39.26 82.0626 41.024V45H80.9286ZM91.4965 44.006H93.1905C94.3572 44.006 95.2392 43.6467 95.8365 42.928C96.4338 42.2 96.7325 41.2947 96.7325 40.212C96.7325 39.1853 96.3965 38.322 95.7245 37.622C95.0618 36.922 94.1985 36.572 93.1345 36.572H91.4965V44.006ZM90.3485 35.564H93.1485C94.5392 35.564 95.6778 35.998 96.5645 36.866C97.4605 37.7247 97.9085 38.84 97.9085 40.212C97.9085 41.5747 97.4932 42.7133 96.6625 43.628C95.8412 44.5427 94.6885 45 93.2045 45H90.3485V35.564Z" fill="#E89B25"/>
<line y1="25" x2="126" y2="25" stroke="#E89B25" stroke-width="2"/>
</svg>
